<!-- icon666.com - MILLIONS OF FREE VECTOR ICONS --><svg viewBox="0 0 152 152" xmlns="http://www.w3.org/2000/svg"><g id="Layer_2" data-name="Layer 2"><g id="_19.vk" data-name="19.vk"><circle id="background" cx="76" cy="76" fill="#4065d6" r="76"></circle><path id="icon" d="m111.05 97.72c-1.78.25-10.43 0-10.88 0a8.51 8.51 0 0 1 -6-2.39c-1.83-1.76-3.48-3.7-5.23-5.53a15.73 15.73 0 0 0 -1.71-1.55c-1.43-1.09-2.84-.84-3.51.84a31.9 31.9 0 0 0 -1.08 5.57 3 3 0 0 1 -3.11 2.88c-1.18.06-2.36.09-3.53.06a27 27 0 0 1 -12.23-3 33.45 33.45 0 0 1 -10.45-9.14 110.55 110.55 0 0 1 -11.58-19c-.17-.34-3.54-7.51-3.62-7.84a2 2 0 0 1 .93-2.6c.6-.23 11.71 0 11.89 0a3.88 3.88 0 0 1 3.73 2.69 58 58 0 0 0 8.33 14.58 7.8 7.8 0 0 0 1.69 1.55 1.28 1.28 0 0 0 2.14-.65 18.29 18.29 0 0 0 .77-4.45c.06-3 0-5-.17-8a3.89 3.89 0 0 0 -3.61-4.11c-.88-.15-1-.87-.39-1.59 1.17-1.49 2.79-1.73 4.55-1.82 2.66-.15 5.33 0 8 0h.58a17.15 17.15 0 0 1 3.49.35 3.18 3.18 0 0 1 2.53 2.84 11.73 11.73 0 0 1 .18 2.29c-.07 3.27-.23 6.54-.27 9.82a17.84 17.84 0 0 0 .35 3.86c.39 1.74 1.58 2.18 2.8.91a44 44 0 0 0 4.17-5.22 52.08 52.08 0 0 0 5.54-10.75c.77-1.94 1.36-2.37 3.45-2.37h11.79a7 7 0 0 1 2.08.28 1.8 1.8 0 0 1 1.24 2.32 19.55 19.55 0 0 1 -3.48 6.9c-2.4 3.39-4.92 6.7-7.38 10a12.72 12.72 0 0 0 -.85 1.35c-.92 1.66-.85 2.6.48 4 2.14 2.2 4.43 4.27 6.49 6.53a38.34 38.34 0 0 1 4.1 5.31c1.52 2.44.59 4.68-2.22 5.08z" fill="#fff"></path></g></g></svg>